<svg xmlns="http://www.w3.org/2000/svg" viewBox="0 0 32 32">
  <defs><clipPath id="bc"><ellipse cx="16" cy="22" rx="9" ry="9"/></clipPath></defs>
  <ellipse cx="8"  cy="14" rx="7" ry="4" fill="white" stroke="#111" stroke-width="1.2" opacity=".85"/>
  <ellipse cx="24" cy="14" rx="7" ry="4" fill="white" stroke="#111" stroke-width="1.2" opacity=".85"/>
  <ellipse cx="16" cy="22" rx="9" ry="9" fill="#F5C833" stroke="#111" stroke-width="1.5"/>
  <rect x="7" y="18" width="18" height="3.5" fill="#333" clip-path="url(#bc)"/>
  <rect x="7" y="24" width="18" height="3.5" fill="#333" clip-path="url(#bc)"/>
  <circle cx="16" cy="10" r="6" fill="#F5C833" stroke="#111" stroke-width="1.5"/>
  <circle cx="13.5" cy="9.2" r="1.1" fill="#222"/>
  <circle cx="18.5" cy="9.2" r="1.1" fill="#222"/>
  <path d="M13,5 Q11,2 10,1" stroke="#111" stroke-width="1.2" fill="none" stroke-linecap="round"/>
  <circle cx="9.5" cy="1" r="1.2" fill="#111"/>
  <path d="M19,5 Q21,2 22,1" stroke="#111" stroke-width="1.2" fill="none" stroke-linecap="round"/>
  <circle cx="22.5" cy="1" r="1.2" fill="#111"/>
  <circle cx="13.5" cy="9.2" r="2.8" fill="#B4DCFF" fill-opacity="0.3" stroke="#222" stroke-width="1.4"/>
  <circle cx="18.5" cy="9.2" r="2.8" fill="#B4DCFF" fill-opacity="0.3" stroke="#222" stroke-width="1.4"/>
  <line x1="16.3" y1="9.2" x2="15.7" y2="9.2" stroke="#222" stroke-width="1.4" stroke-linecap="round"/>
  <line x1="10.7" y1="8.5" x2="9" y2="8" stroke="#222" stroke-width="1.2" stroke-linecap="round"/>
  <line x1="21.3" y1="8.5" x2="23" y2="8" stroke="#222" stroke-width="1.2" stroke-linecap="round"/>
</svg>
